# xmcd CD database file
#
# Track frame offsets:
#	150
#	15053
#	26966
#	38489
#	50402
#	64187
#	78622
#	92602
#	105815
#	120588
#	134508
#	150295
#	163794
#	178348
#	192679
#	205970
#	218428
#	232169
#	246655
#	261844
#
# Disc length: 3652 seconds
#
# Revision: 0
# Processed by: cddbd v1.5.1PL0 Copyright (c) Steve Scherf et al.
# Submitted via: CDex 1.51
#
DISCID=130e4214
DTITLE=Louis Armstrong - The Jazz Biography
DYEAR=2004
DGENRE=Jazz
TTITLE0=Baby Won't You Please Come Home?
TTITLE1=Alexander's Ragtime Band
TTITLE2=Bye And Bye
TTITLE3=Blues For Yesterday
TTITLE4=Joseph And His Brothers
TTITLE5=When It's Sleepy Time Down South
TTITLE6=Blues In the South
TTITLE7=No Variety Blues
TTITLE8=Rockin' Chair
TTITLE9=Do You Know What It Means To Miss New-Orleans
TTITLE10=Sugar
TTITLE11=On the Sunny Side Of the Street
TTITLE12=Red Cap
TTITLE13=Where the Blues Were Born in New-Orleans
TTITLE14=Ain't Misbehavin'
TTITLE15=Sun Showers
TTITLE16=C'est si bon
TTITLE17=Can Anyone Explain
TTITLE18=La Vie en Rose
TTITLE19=When the Saints Go Marchin' In
EXTD=YEAR: 2004
EXTT0=
EXTT1=
EXTT2=
EXTT3=
EXTT4=
EXTT5=
EXTT6=
EXTT7=
EXTT8=
EXTT9=
EXTT10=
EXTT11=
EXTT12=
EXTT13=
EXTT14=
EXTT15=
EXTT16=
EXTT17=
EXTT18=
EXTT19=
PLAYORDER=
